<svg id="wave" style="transform:rotate(180deg); transition: 0.3s" viewBox="0 0 1440 100" version="1.1" xmlns="http://www.w3.org/2000/svg"><defs><linearGradient id="sw-gradient-0" x1="0" x2="0" y1="1" y2="0"><stop stop-color="rgba(0, 39.051, 255, 1)" offset="0%"></stop><stop stop-color="rgba(228.726, 0, 255, 1)" offset="100%"></stop></linearGradient></defs><path style="transform:translate(0, 0px); opacity:1" fill="url(#sw-gradient-0)" d="M0,0L102.9,10L205.7,20L308.6,90L411.4,60L514.3,30L617.1,70L720,40L822.9,20L925.7,50L1028.6,60L1131.4,40L1234.3,20L1337.1,40L1440,0L1542.9,0L1645.7,20L1748.6,40L1851.4,30L1954.3,50L2057.1,80L2160,40L2262.9,90L2365.7,80L2468.6,60L2468.6,100L2365.7,100L2262.9,100L2160,100L2057.1,100L1954.3,100L1851.4,100L1748.6,100L1645.7,100L1542.9,100L1440,100L1337.1,100L1234.3,100L1131.4,100L1028.6,100L925.7,100L822.9,100L720,100L617.1,100L514.3,100L411.4,100L308.6,100L205.7,100L102.9,100L0,100Z"></path><defs><linearGradient id="sw-gradient-1" x1="0" x2="0" y1="1" y2="0"><stop stop-color="rgba(0, 255, 229.086, 1)" offset="0%"></stop><stop stop-color="rgba(0, 255, 142.706, 1)" offset="100%"></stop></linearGradient></defs><path style="transform:translate(0, 50px); opacity:0.9" fill="url(#sw-gradient-1)" d="M0,10L102.9,60L205.7,30L308.6,0L411.4,20L514.3,0L617.1,80L720,90L822.9,40L925.7,40L1028.6,30L1131.4,90L1234.3,40L1337.1,20L1440,40L1542.9,0L1645.7,0L1748.6,20L1851.4,40L1954.3,70L2057.1,90L2160,50L2262.9,40L2365.7,40L2468.6,70L2468.6,100L2365.7,100L2262.9,100L2160,100L2057.1,100L1954.3,100L1851.4,100L1748.6,100L1645.7,100L1542.9,100L1440,100L1337.1,100L1234.3,100L1131.4,100L1028.6,100L925.7,100L822.9,100L720,100L617.1,100L514.3,100L411.4,100L308.6,100L205.7,100L102.9,100L0,100Z"></path></svg>